<?xml version="1.0" encoding="utf-8"?>
<!-- Generator: Adobe Illustrator 28.2.0, SVG Export Plug-In . SVG Version: 6.00 Build 0)  -->
<svg version="1.1" id="Capa_1" xmlns="http://www.w3.org/2000/svg" xmlns:xlink="http://www.w3.org/1999/xlink" x="0px" y="0px"
	 viewBox="0 0 576 512" style="enable-background:new 0 0 576 512;" xml:space="preserve">
<path d="M297.1,13c-134.2,0-243,108.8-243,243s108.8,243,243,243s243-108.8,243-243S431.3,13,297.1,13z M297.1,97.8
	c87.3,0,158.2,70.9,158.2,158.2s-70.9,158.2-158.2,158.2S138.9,343.3,138.9,256S209.8,97.8,297.1,97.8z M297.1,116.4
	c-21.1,0-41.1,4.7-59,13c11.9,34,32.4,76.9,59,76.9c26.7,0,46.5-43.1,58.7-77.1C337.9,121,318.1,116.4,297.1,116.4z M399.2,160.7
	c-28.7,21.9-63.2,54.6-55,80c8.3,25.4,55.3,30.9,91.5,32c0.6-5.5,1-11,1-16.7C436.7,219.1,422.5,185.7,399.2,160.7z M194.7,161
	c-23.1,24.9-37.2,58.3-37.2,95c0,5.7,0.4,11.4,1,16.9c36-0.9,83.1-7,91.4-32.4C258.1,215.2,223.3,183.1,194.7,161L194.7,161z
	 M267.3,206.1c-1.9,0.1-3.7,0.7-5.2,1.8c-4.2,3-5.1,8.8-2.1,13c3,4.2,8.8,5.1,13,2.1c4.2-3,5.1-8.8,2.1-13c0,0,0,0,0,0
	C273.3,207.5,270.4,206,267.3,206.1z M326.9,206.1c-0.2,0-0.4,0-0.7,0c-2.8,0.1-5.5,1.5-7.1,3.8c-3,4.2-2.1,10,2.1,13c0,0,0,0,0,0
	c4.2,3,10,2.1,13-2.1c3-4.2,2.1-10-2.1-13C330.5,206.8,328.7,206.2,326.9,206.1L326.9,206.1z M297.1,222.9
	c-18.3,0-33.1,14.8-33.1,33.1s14.8,33.1,33.1,33.1c18.3,0,33.1-14.8,33.1-33.1S315.4,222.9,297.1,222.9z M249.2,262.2
	c-0.9,0-1.9,0.2-2.7,0.5c-4.9,1.6-7.6,6.8-6,11.7c0,0,0,0,0,0c1.6,4.9,6.8,7.6,11.7,6c4.9-1.6,7.6-6.8,6-11.7c0,0,0,0,0,0
	C256.9,264.8,253.3,262.2,249.2,262.2L249.2,262.2z M345.2,262.3c-4.2-0.2-8,2.4-9.3,6.4c-1.6,4.9,1.1,10.1,6,11.7c0,0,0,0,0,0
	c4.9,1.6,10.1-1.1,11.7-6c1.6-4.9-1.1-10.1-6-11.7c0,0,0,0,0,0C346.9,262.4,346.1,262.3,345.2,262.3L345.2,262.3z M250,290.9
	c-22.3,0.1-52,17.4-74.9,33c19.7,35.3,54.2,61.2,95.3,69.1c10.3-34.5,19-81.3-2.5-97C262.8,292.4,256.7,290.9,250,290.9z
	 M344.1,290.9c-6.8,0-12.9,1.6-17.9,5.2c-21.6,15.7-12.3,62.2-2.2,96.9c41-8,75.6-33.9,95.2-69.3C396.5,308,366.5,290.9,344.1,290.9
	L344.1,290.9z M297.1,296.9c-5.1,0-9.3,4.2-9.3,9.3c0,5.1,4.2,9.3,9.3,9.3s9.3-4.2,9.3-9.3C306.4,301.1,302.2,296.9,297.1,296.9z"/>
</svg>
