<?xml version="1.0" encoding="utf-8"?>
<!-- Generator: Adobe Illustrator 28.2.0, SVG Export Plug-In . SVG Version: 6.00 Build 0)  -->
<svg version="1.1" id="Capa_1" xmlns="http://www.w3.org/2000/svg" xmlns:xlink="http://www.w3.org/1999/xlink" x="0px" y="0px"
	 viewBox="0 0 576 512" style="enable-background:new 0 0 576 512;" xml:space="preserve">
<path d="M561,271.4c-4.1-46.1-10.9-55-13.4-58.4c-5.9-7.8-15.3-12.9-25.2-18.2c-2-1.1-2.8-3.5-1.7-5.5c0.2-0.3,0.4-0.7,0.7-0.9
	c3.7-3.8,5.6-9,5.2-14.3c-0.9-9.6-9-16.9-18.6-16.8h-17.8c-0.8,0-1.5,0.1-2.3,0.1c-0.5-0.2-1.1-0.4-1.6-0.5
	c-10.5-22.3-24.9-52.7-54.8-67.6c-44.3-22-126-23.2-141.9-23.2c-16,0-97.6,1.1-141.9,23.1c-29.9,14.9-44.3,45.3-54.8,67.6l-0.1,0.2
	c-0.5,0.1-1,0.2-1.5,0.4c-0.8-0.1-1.5-0.1-2.3-0.1H71.1c-9.6-0.1-17.7,7.2-18.6,16.8c-0.4,5.3,1.5,10.5,5.2,14.2
	c1.6,1.6,1.5,4.2-0.1,5.8c-0.3,0.3-0.6,0.5-0.9,0.7c-9.9,5.4-19.4,10.5-25.2,18.2c-2.6,3.4-9.3,12.3-13.4,58.4
	c-2.3,25.9-2.6,52.7-0.8,70c3.7,35.9,10.8,57.6,11.1,58.5c2.2,6.7,8.1,11.5,15,12.4v0.2c0,10.1,8.2,18.2,18.2,18.2h63.8
	c10.1,0,18.2-8.2,18.2-18.2c9.8,0,16.6-1.8,23.9-3.6c10.4-2.8,21.1-4.7,31.9-5.6c34.8-3.3,69.3-4.5,90.1-4.5
	c20.3,0,56.4,1.1,91.3,4.5c10.8,0.9,21.5,2.8,32,5.6c6.9,1.8,13.5,3.4,22.6,3.6c0,10.1,8.2,18.2,18.2,18.2h63.8
	c10.1,0,18.2-8.2,18.2-18.2v-0.1c7-0.9,12.9-5.7,15.1-12.4c0.3-0.9,7.3-22.6,11.1-58.5C563.6,324.1,563.3,297.3,561,271.4L561,271.4
	z M125.8,172.3c9.1-19.4,19.5-41.3,38.1-50.5c26.8-13.4,82.4-19.4,125.6-19.4c43.2,0,98.8,6,125.6,19.4
	c18.6,9.2,28.9,31.2,38.1,50.5l1.1,2.5c2.2,4.6,0.2,10-4.3,12.1c-1.3,0.6-2.7,0.9-4.1,0.9c-37.9-1-117.6-4.3-156.4-4.3
	s-118.5,3.4-156.4,4.4c-5,0.1-9.2-3.8-9.4-8.9c0-1.4,0.3-2.8,0.9-4.1C125,174,125.4,173.2,125.8,172.3L125.8,172.3z M139.4,263.1
	c-19.6,2.4-39.3,3.5-59.1,3.5c-12.1,0-24.5-3.4-26.8-14.2c-1.6-7.2-1.4-11.3-0.6-15.4c0.7-3.5,1.9-6,7.6-6.9
	c14.8-2.3,23.1,0.6,47.4,7.7c16.1,4.7,27.7,11,34.3,16C145.4,256.3,143.6,262.7,139.4,263.1L139.4,263.1z M391.7,356.5
	c-15,1.7-45,1.1-101.8,1.1s-86.8,0.6-101.8-1.1c-15.5-1.7-35.2-16.4-21.7-29.4c9-8.6,29.9-15,57.8-18.6s39.7-5.5,65.7-5.5
	s36.6,1.1,65.7,5.5c29.1,4.3,51,10.8,57.8,18.6C425.4,341.1,407.1,354.7,391.7,356.5L391.7,356.5z M525.6,252.4
	c-2.3,10.8-14.8,14.2-26.8,14.2c-20.1,0-40.2-1.2-60.2-3.5c-3.5-0.3-5.1-6.5-1.6-9.2c6.5-5.1,18.2-11.3,34.3-16
	c24.3-7.1,38.2-10,50.2-7.6c2.9,0.6,4.5,3.7,4.7,5.7C526.9,241.4,526.7,247,525.6,252.4L525.6,252.4z"/>
</svg>
