<?xml version="1.0" encoding="utf-8"?>
<!-- Generator: Adobe Illustrator 28.2.0, SVG Export Plug-In . SVG Version: 6.00 Build 0)  -->
<svg version="1.1" id="Capa_1" xmlns="http://www.w3.org/2000/svg" xmlns:xlink="http://www.w3.org/1999/xlink" x="0px" y="0px"
	 viewBox="0 0 576 512" style="enable-background:new 0 0 576 512;" xml:space="preserve">
<path d="M102.3,33.5C71.7,33.7,47,58.5,47,89.1c0.1,26.7,19,49.5,45.2,54.5v224.6C66,373.3,47,396.2,47,422.9
	c0,30.7,24.9,55.6,55.6,55.6c30.7,0,55.6-24.9,55.6-55.6c0-26.7-18.9-49.6-45.1-54.6V266.4h164.5v101.9c-26.2,5-45.2,27.9-45.2,54.6
	c0,30.7,25,55.6,55.7,55.6c0,0,0,0,0,0c30.7,0,55.6-24.9,55.6-55.6c0-26.7-19-49.6-45.2-54.6V266.4h185.4V143.7
	c26.2-5,45.1-27.9,45.2-54.5c0-30.7-24.9-55.6-55.6-55.6c-0.1,0-0.1,0-0.2,0c-30.6,0.1-55.4,25-55.4,55.6
	c0.1,26.7,19,49.5,45.2,54.5v101.9H298.4V143.7c26.2-5,45.1-27.9,45.2-54.5c0-30.7-24.9-55.6-55.6-55.6c-0.1,0-0.1,0-0.2,0
	c-30.7,0.1-55.5,25-55.5,55.6c0.1,26.7,19,49.5,45.2,54.5v101.9H113.1V143.7c26.2-5,45.1-27.9,45.1-54.5c0-30.7-24.9-55.6-55.6-55.6
	C102.5,33.5,102.4,33.5,102.3,33.5z"/>
</svg>
