<?xml version="1.0" encoding="utf-8"?>
<!-- Generator: Adobe Illustrator 28.2.0, SVG Export Plug-In . SVG Version: 6.00 Build 0)  -->
<svg version="1.1" id="Capa_1" xmlns="http://www.w3.org/2000/svg" xmlns:xlink="http://www.w3.org/1999/xlink" x="0px" y="0px"
	 viewBox="0 0 576 512" style="enable-background:new 0 0 576 512;" xml:space="preserve">
<path d="M294.5,17.5C162.6,17.5,56,124.2,56,256s106.7,238.5,238.5,238.5S533,387.8,533,256S426.3,17.5,294.5,17.5z M294.5,48.5
	C409,48.5,502,141.5,502,256s-93,207.5-207.5,207.5S86.9,370.5,86.9,256S180,48.5,294.5,48.5z M113.3,202.2
	c-4.9,19.8-7.8,38.2-7.8,55.8c149.4,31.3,125.4,64.4,152.8,183.6c11.8,2.2,23.7,3.4,36.1,3.4s24.4-1.2,36.1-3.4
	C358,322.4,334,289.2,483.4,258c-0.6-19.5-3.1-39.6-7.7-55.8c-87.6-21.9-134.6-32.9-181.2-32.9S200.8,180.3,113.3,202.2z
	 M294.5,180.6c41.5,0,75.4,33.9,75.4,75.4s-33.9,75.4-75.4,75.4s-75.4-33.9-75.4-75.4S253,180.6,294.5,180.6z M294.5,199.2
	c-31.5,0-56.8,25.3-56.8,56.8s25.3,56.8,56.8,56.8s56.8-25.3,56.8-56.8S326,199.2,294.5,199.2z"/>
</svg>
