<?xml version="1.0" encoding="utf-8"?>
<!-- Generator: Adobe Illustrator 28.2.0, SVG Export Plug-In . SVG Version: 6.00 Build 0)  -->
<svg version="1.1" id="Capa_1" xmlns="http://www.w3.org/2000/svg" xmlns:xlink="http://www.w3.org/1999/xlink" x="0px" y="0px"
	 viewBox="0 0 264 223" style="enable-background:new 0 0 264 223;" xml:space="preserve">
<path d="M256,109v48c0,8.8-7.2,16-16,16h-12.7L192,208.3c-3,3-7.1,4.7-11.3,4.7h-77.4c-4.2,0-8.3-1.7-11.3-4.7L52.7,169
	c-3-3-4.7-7.1-4.7-11.3V137H24v24c0,4.4-3.6,8-8,8s-8-3.6-8-8V97c0-4.4,3.6-8,8-8s8,3.6,8,8v24h24V69c0-8.8,7.2-16,16-16h60V29h-24
	c-4.4,0-8-3.6-8-8s3.6-8,8-8h64c4.4,0,8,3.6,8,8s-3.6,8-8,8h-24v24h40.7c4.2,0,8.3,1.7,11.3,4.7L227.3,93H240
	C248.8,93,256,100.2,256,109z"/>
</svg>
