<?xml version="1.0" encoding="utf-8"?>
<!-- Generator: Adobe Illustrator 28.2.0, SVG Export Plug-In . SVG Version: 6.00 Build 0)  -->
<svg version="1.1" id="Capa_1" xmlns="http://www.w3.org/2000/svg" xmlns:xlink="http://www.w3.org/1999/xlink" x="0px" y="0px"
	 viewBox="0 0 576 512" style="enable-background:new 0 0 576 512;" xml:space="preserve">
<path d="M357.1,400.7c0,45.8-37.5,83.3-83.3,83.3s-83.3-37.5-83.3-83.3H246c0,15.3,12.5,27.8,27.8,27.8s27.8-12.5,27.8-27.8
	s-12.5-27.8-27.8-27.8H10v-55.5h263.8C319.6,317.4,357.1,354.9,357.1,400.7z M482,109.2c0-53.6-43.6-97.2-97.2-97.2
	s-97.2,43.6-97.2,97.2h55.5c0-23,18.6-41.6,41.6-41.6c23,0,41.6,18.6,41.6,41.6s-18.6,41.6-41.6,41.6H10v55.5h374.8
	C438.4,206.4,482,162.8,482,109.2z M468.1,234.1H10v55.5h458.1c23,0,41.6,18.6,41.6,41.6c0,23-18.6,41.6-41.6,41.6v55.5
	c53.6,0,97.2-43.6,97.2-97.2S521.7,234.1,468.1,234.1z"/>
</svg>
